IKResults
version=1
nRows=14
nColumns=40
inDegrees=yes

Units are S.I. units (second, meters, Newtons, ...)
Angles are in degrees.

endheader
time	pelvis_tilt	pelvis_list	pelvis_rotation	pelvis_tx	pelvis_ty	pelvis_tz	hip_flexion_r	hip_adduction_r	hip_rotation_r	knee_angle_r	knee_angle_r_beta	ankle_angle_r	subtalar_angle_r	mtp_angle_r	hip_flexion_l	hip_adduction_l	hip_rotation_l	knee_angle_l	knee_angle_l_beta	ankle_angle_l	subtalar_angle_l	mtp_angle_l	lumbar_extension	lumbar_bending	lumbar_rotation	arm_flex_r	arm_add_r	arm_rot_r	elbow_flex_r	pro_sup_r	wrist_flex_r	wrist_dev_r	arm_flex_l	arm_add_l	arm_rot_l	elbow_flex_l	pro_sup_l	wrist_flex_l	wrist_dev_l
      0.38000000	     15.75036371	      1.49003106	      0.34624412	     -0.56586978	      0.91920516	     -0.98747608	    -28.40999984	      1.53105656	    -11.30101914	    -15.22554677	     -0.26573592	     17.17687839	     -4.95968149	     -2.49068638	     11.13821012	      0.40941842	     14.94965520	    -20.83526590	     -0.36364399	      2.96993963	      1.04897391	      1.52978253	    -24.85145906	     -2.26019316	      3.48169380	     -0.87786663	    -15.79139467	      0.23620596	     47.98958640	     89.95437384	      0.00000000	      0.00000000	     -8.34010355	      8.46653110	     20.06621552	     11.80019733	     89.95437384	      0.00000000	      0.00000000
      0.39000000	     15.61633290	      1.62540001	     -0.36923990	     -0.55225167	      0.91599590	     -0.98719764	    -28.74780137	      0.81434331	    -11.52723623	    -16.10716184	     -0.28112301	     17.45301806	     -3.70795541	     -5.42673145	     11.73469388	      0.63494134	     17.71292728	    -19.45521405	     -0.33955754	      2.34618414	     -2.42008577	     -7.64473019	    -24.44650762	     -2.69452603	      4.19661189	     -0.97593620	    -15.99700180	      0.32320499	     48.22514590	     89.95437384	      0.00000000	      0.00000000	     -9.15990659	      8.52690563	     20.85563069	     11.19208048	     89.95437384	      0.00000000	      0.00000000
      0.40000000	     15.32279928	      1.77216424	     -0.78002382	     -0.53906254	      0.91283349	     -0.98748232	    -28.94396478	      0.35746704	    -11.07485001	    -16.94233596	     -0.29569955	     17.75795699	     -3.77419556	     -5.49160493	     12.39722053	      0.35032501	     18.15856011	    -18.16827358	     -0.31709619	      3.23030990	     -3.49356110	     -7.70144231	    -23.94767955	     -3.01025367	      4.61697760	     -0.98197352	    -16.12466003	      0.33625529	     48.27194620	     89.95437384	      0.00000000	      0.00000000	     -9.87859806	      8.62216750	     21.20672343	     10.58314080	     89.95437384	      0.00000000	      0.00000000
      0.41000000	     15.11905624	      2.01348471	     -1.44652770	     -0.52551599	      0.90998010	     -0.98765629	    -29.10291538	     -0.38173964	    -10.59283001	    -18.02819494	     -0.31465136	     17.97927954	     -3.71744355	     -5.60392365	     12.89874481	      0.08573786	     19.14901792	    -17.31674026	     -0.30223413	      3.63051072	     -4.22633439	     -7.68036364	    -23.50339097	     -3.49085687	      5.20925001	     -1.02798501	    -16.27327956	      0.39298354	     48.25428408	     89.95437384	      0.00000000	      0.00000000	    -10.52442640	      8.66790362	     21.81468320	      9.98017512	     89.95437384	      0.00000000	      0.00000000
      0.42000000	     14.94307922	      2.18951880	     -2.14921643	     -0.51174098	      0.90738598	     -0.98782046	    -29.22602430	     -1.13089916	    -10.14299329	    -19.22593839	     -0.33555593	     18.05021366	     -3.30359202	     -5.82202082	     13.37818374	     -0.00380045	     20.41707519	    -16.99991145	     -0.29670443	      3.82899630	     -4.66225766	     -7.60441612	    -23.08421562	     -3.90670607	      5.82386441	     -1.14962328	    -16.39044393	      0.41170687	     48.26087315	     89.95437384	      0.00000000	      0.00000000	    -11.11550992	      8.67679857	     22.70339234	      9.43483723	     89.95437384	      0.00000000	      0.00000000
      0.43000000	     14.70112291	      2.31440175	     -2.70381513	     -0.49764402	      0.90498407	     -0.98815764	    -29.29826134	     -1.75318830	     -9.66115966	    -20.41263302	     -0.35626766	     17.83920709	     -2.91410743	     -6.09369880	     13.88282389	     -0.03780552	     21.35170741	    -17.13484306	     -0.29905943	      4.06031304	     -4.92187955	     -7.52714557	    -22.57098934	     -4.22094060	      6.28449448	     -1.28579776	    -16.45817247	      0.44171397	     48.10085446	     89.95437384	      0.00000000	      0.00000000	    -11.74558990	      8.67613009	     23.51368714	      9.03214730	     89.95437384	      0.00000000	      0.00000000
      0.44000000	     14.45200650	      2.36769516	     -3.14874747	     -0.48335748	      0.90290740	     -0.98856898	    -29.35828180	     -2.21847825	     -9.03052857	    -21.59665701	     -0.37693277	     17.26215582	     -2.81102091	     -6.18702016	     14.26348904	     -0.07222414	     21.59340035	    -17.52181083	     -0.30581329	      4.63955985	     -4.61576653	     -7.39590290	    -22.03988319	     -4.40640360	      6.67328952	     -1.49393578	    -16.48514786	      0.44220318	     47.88986481	     89.95437384	      0.00000000	      0.00000000	    -12.32519312	      8.70487645	     23.83617830	      8.69165401	     89.95437384	      0.00000000	      0.00000000
      0.45000000	     14.17600956	      2.39521767	     -3.41125337	     -0.46873299	      0.90118700	     -0.98910324	    -29.40742919	     -2.55615517	     -8.48308824	    -22.75119547	     -0.39708327	     16.42144606	     -2.71390636	     -6.08144261	     14.55389486	     -0.15469110	     21.10869031	    -18.10339118	     -0.31596378	      4.86956310	     -4.29865189	     -7.23676022	    -21.47799892	     -4.52646502	      6.87145203	     -1.73235721	    -16.43178428	      0.39601328	     47.56122399	     89.95437384	      0.00000000	      0.00000000	    -13.00912351	      8.74962878	     23.84420287	      8.67570426	     89.95437384	      0.00000000	      0.00000000
      0.46000000	     13.94809597	      2.44363712	     -3.78997424	     -0.45372080	      0.89991444	     -0.98956449	    -29.42267159	     -2.98750235	     -7.87790974	    -24.03976858	     -0.41957311	     15.31175470	     -2.68503828	     -5.94224830	     14.66406265	     -0.23199099	     20.68134366	    -18.95969822	     -0.33090916	      5.25222320	     -3.65831847	     -7.04262058	    -20.93093423	     -4.69740061	      7.11494913	     -2.01197190	    -16.34564856	      0.35214819	     47.13467452	     89.95437384	      0.00000000	      0.00000000	    -13.57830357	      8.76720200	     23.87954900	      8.55930462	     89.95437384	      0.00000000	      0.00000000
      0.47000000	     13.75617748	      2.48794369	     -4.26915075	     -0.43845761	      0.89918981	     -0.98992284	    -29.44773819	     -3.32120787	     -6.68583991	    -25.31163723	     -0.44177141	     13.68027711	     -3.99692159	     -5.89714705	     14.52090738	     -0.51911645	     19.74156958	    -19.73119774	     -0.34437437	      5.37066313	      0.00280236	     -6.65115946	    -20.40071883	     -4.88220998	      7.46275039	     -2.39247434	    -16.21494238	      0.26367473	     46.70177483	     89.95437384	      0.00000000	      0.00000000	    -13.81038978	      8.70872153	     25.22437896	      8.14279702	     89.95437384	      0.00000000	      0.00000000
      0.48000000	     13.61802093	      2.55984485	     -4.64881881	     -0.42243485	      0.89886055	     -0.99074280	    -29.44771601	     -3.80578023	     -6.28772754	    -26.71971609	     -0.46634702	     11.73858241	     -3.99860945	     -5.62544149	     14.61745842	     -0.45341299	     20.44126843	    -21.30156387	     -0.37178243	      3.01462216	      1.90196428	     -6.11440989	    -19.82736186	     -5.02290393	      7.63244102	     -2.81536489	    -16.13357611	      0.33192471	     46.13053255	     89.95437384	      0.00000000	      0.00000000	    -14.37082258	      8.66461026	     25.09087566	      8.15502903	     89.95437384	      0.00000000	      0.00000000
      0.49000000	     13.66935404	      2.88171537	     -4.95228868	     -0.40666098	      0.89956495	     -0.99169396	    -29.41704624	     -4.43598019	     -5.80765056	    -28.39494850	     -0.49558534	      9.41645291	     -4.46706340	     -5.25157226	     14.39013429	     -0.74789928	     20.34951915	    -22.63698885	     -0.39508999	      1.88779274	      2.87493487	     -5.80661660	    -19.53441500	     -5.44090566	      7.64060121	     -3.15056876	    -15.90888961	      0.28809541	     45.33302521	     89.95437384	      0.00000000	      0.00000000	    -14.66148581	      8.65322675	     24.96656927	      8.10351421	     89.95437384	      0.00000000	      0.00000000
      0.50000000	     13.90553568	      3.39590416	     -5.24229014	     -0.39098244	      0.90131066	     -0.99273235	    -29.38252396	     -5.07171442	     -4.97324120	    -30.22777290	     -0.52757416	      6.08506386	     -6.77510606	     -4.56212683	     13.82748594	     -1.46357706	     19.55437731	    -23.63255745	     -0.41246594	      1.81029464	      4.46120670	     -5.61923475	    -19.47665655	     -6.06710284	      7.54165199	     -3.48961977	    -15.62029905	      0.14964138	     44.51146049	     89.95437384	      0.00000000	      0.00000000	    -14.77027046	      8.64717138	     25.07351914	      8.08060309	     89.95437384	      0.00000000	      0.00000000
      0.51000000	     14.29559040	      3.62967123	     -5.27163821	     -0.37510973	      0.90382597	     -0.99384567	    -29.25430655	     -5.52465380	     -5.06921947	    -32.44364937	     -0.56624850	      2.52061336	     -7.19750794	     -3.96874740	     13.15481001	     -1.79213022	     18.85270317	    -25.00302169	     -0.43638505	      1.74818644	      5.06591161	     -5.43976413	    -19.61761188	     -6.34369376	      7.18954301	     -3.71575544	    -15.27185291	      0.08075954	     43.40747496	     89.95437384	      0.00000000	      0.00000000	    -14.79697982	      8.64465128	     24.74101169	      8.02567539	     89.95437384	      0.00000000	      0.00000000
